<?xml version="1.0" standalone="no"?>
<!DOCTYPE svg PUBLIC "-//W3C//DTD SVG 20010904//EN"
 "http://www.w3.org/TR/2001/REC-SVG-20010904/DTD/svg10.dtd">
<svg version="1.0" xmlns="http://www.w3.org/2000/svg"
 width="900.000000pt" height="996.000000pt" viewBox="0 0 900.000000 996.000000"
 preserveAspectRatio="xMidYMid meet">
<metadata>
Created by potrace 1.10, written by Peter Selinger 2001-2011
</metadata>
<g transform="translate(0.000000,996.000000) scale(0.100000,-0.100000)"
fill="#003b47" stroke="none">
<path d="M4425 9684 c-22 -14 -49 -29 -60 -35 -11 -5 -27 -13 -35 -19 -20 -13
-161 -94 -180 -104 -8 -4 -24 -12 -35 -19 -11 -7 -52 -30 -90 -52 -39 -22 -79
-45 -90 -52 -11 -7 -27 -16 -35 -20 -8 -4 -46 -26 -85 -48 -38 -23 -77 -45
-85 -49 -8 -4 -24 -12 -35 -19 -11 -7 -51 -30 -90 -52 -38 -22 -77 -44 -87
-50 -9 -5 -38 -21 -64 -35 -78 -41 -75 -28 -64 -366 5 -164 10 -303 10 -308 0
-5 66 -75 146 -157 l145 -148 -6 -143 c-3 -79 -12 -246 -20 -373 -28 -439 -37
-591 -45 -770 -4 -99 -13 -256 -19 -350 -6 -93 -18 -287 -26 -430 -8 -143 -22
-366 -30 -495 -9 -129 -16 -269 -16 -310 0 -41 -4 -120 -10 -175 -5 -55 -14
-194 -19 -310 -9 -211 -18 -352 -45 -760 -9 -121 -15 -260 -15 -310 l0 -89
-72 -70 c-40 -38 -103 -95 -141 -128 l-68 -58 -949 0 c-947 0 -949 0 -960 -21
-6 -11 -17 -48 -25 -82 -13 -60 -30 -133 -61 -267 -8 -36 -21 -94 -30 -130 -8
-36 -21 -94 -30 -130 -8 -36 -21 -93 -29 -128 -8 -34 -21 -91 -30 -127 -8 -36
-21 -94 -30 -130 303 1312 -362 -1572 -60 -260 -8 -36 -22 -95 -30 -133 -9
-37 -19 -84 -22 -104 l-6 -38 109 -51 c60 -28 141 -65 179 -84 39 -18 102 -48
140 -65 138 -63 201 -93 285 -132 47 -22 112 -53 145 -68 33 -15 94 -44 135
-63 41 -19 107 -49 145 -67 39 -18 102 -47 140 -65 133 -62 200 -93 270 -125
39 -18 106 -49 150 -70 80 -38 166 -78 300 -140 196 -90 324 -149 410 -190 44
-21 114 -54 155 -73 41 -19 107 -49 145 -67 39 -18 99 -46 135 -62 36 -17 98
-45 138 -64 39 -19 105 -49 145 -68 80 -38 169 -79 297 -138 47 -21 97 -45
112 -53 33 -19 83 -19 116 0 15 8 65 32 112 53 132 61 218 101 300 139 155 73
217 102 285 133 39 18 102 47 140 65 39 18 102 47 140 65 39 17 104 48 145 67
41 19 102 48 135 63 33 15 94 44 135 63 41 19 107 49 145 67 39 18 108 50 155
72 47 22 112 53 145 68 33 15 94 44 135 63 41 19 109 51 150 70 41 19 105 48
143 66 37 17 97 45 135 62 37 17 103 48 147 69 44 21 107 50 140 65 33 15 96
44 140 65 44 21 112 52 150 70 66 30 144 66 280 130 33 16 109 52 169 80 l109
50 -6 38 c-3 20 -13 67 -22 104 -8 38 -22 97 -30 133 -9 36 -22 94 -30 130 -9
36 -22 94 -30 130 -9 36 -22 94 -30 130 -18 75 -38 161 -61 260 -29 126 -32
139 -54 235 -12 52 -28 122 -35 155 -8 33 -21 90 -29 127 -8 37 -20 76 -26 87
-11 21 -13 21 -959 21 l-949 0 -49 39 c-26 22 -90 79 -140 128 l-93 88 0 85
c0 47 -6 189 -15 315 -29 443 -45 711 -51 845 -3 74 -10 167 -14 205 -5 39 -9
115 -10 170 0 55 -6 201 -14 325 -9 124 -22 351 -31 505 -9 154 -20 352 -26
440 -6 88 -15 241 -19 340 -5 99 -13 259 -19 355 -27 421 -41 664 -47 793 l-6
138 146 148 c80 82 146 152 146 157 0 5 5 144 10 308 11 338 14 325 -64 366
-26 14 -55 30 -64 35 -10 6 -49 28 -87 50 -39 22 -79 45 -90 52 -11 7 -27 15
-35 19 -8 4 -46 26 -85 49 -38 22 -77 44 -85 48 -8 4 -24 13 -35 20 -11 7 -51
30 -90 52 -38 22 -79 45 -90 52 -11 7 -27 15 -35 19 -19 10 -160 91 -180 104
-8 6 -22 13 -30 17 -8 4 -37 19 -63 35 -59 34 -81 35 -132 2z m105 -99 c14 -8
32 -17 40 -21 8 -4 47 -26 85 -49 39 -22 77 -44 85 -48 8 -4 24 -13 35 -20 11
-7 52 -30 90 -52 39 -22 79 -45 90 -52 11 -7 27 -15 35 -19 8 -4 47 -26 85
-49 39 -22 77 -44 85 -48 8 -4 24 -13 35 -20 11 -7 51 -30 90 -52 38 -22 77
-44 87 -50 9 -5 37 -21 63 -35 26 -13 51 -32 56 -41 5 -10 5 -127 0 -279 l-8
-262 -148 -148 -148 -148 12 -219 c6 -120 16 -285 22 -368 6 -82 14 -233 19
-335 5 -102 13 -257 19 -345 6 -88 18 -284 26 -435 25 -452 44 -771 60 -1020
17 -258 31 -504 45 -795 9 -200 21 -393 45 -765 9 -124 15 -247 15 -274 0 -49
0 -49 92 -135 51 -47 122 -114 158 -148 l65 -63 520 -1 c286 -1 709 -5 940 -8
l419 -6 12 -25 c7 -14 20 -59 29 -100 9 -41 23 -104 32 -140 21 -91 42 -185
58 -255 26 -111 46 -200 60 -255 7 -30 21 -89 30 -130 32 -147 72 -318 91
-391 26 -100 50 -79 -251 -219 -33 -15 -94 -44 -135 -63 -41 -19 -106 -49
-145 -67 -38 -18 -106 -49 -150 -70 -44 -21 -107 -50 -140 -65 -33 -15 -96
-44 -140 -65 -44 -21 -111 -52 -150 -70 -98 -46 -210 -97 -275 -127 -30 -14
-91 -42 -135 -63 -44 -21 -107 -50 -140 -65 -33 -15 -96 -44 -140 -65 -44 -21
-111 -52 -150 -70 -38 -18 -104 -48 -145 -67 -41 -19 -109 -51 -150 -70 -159
-75 -217 -102 -285 -133 -38 -18 -101 -47 -140 -65 -143 -66 -207 -96 -272
-126 -38 -17 -104 -48 -148 -69 -44 -21 -114 -54 -155 -73 -41 -19 -105 -48
-142 -66 -37 -17 -72 -31 -78 -31 -6 0 -43 15 -83 34 -40 18 -103 48 -142 66
-38 17 -104 48 -145 67 -41 19 -102 48 -135 63 -33 15 -98 46 -145 68 -82 38
-144 67 -287 133 -38 17 -104 48 -148 69 -44 21 -110 52 -147 69 -38 17 -98
45 -135 62 -38 18 -102 47 -143 66 -41 19 -109 51 -150 70 -41 19 -102 48
-135 63 -33 15 -94 44 -135 63 -41 19 -106 50 -145 67 -38 18 -101 47 -140 65
-38 18 -101 47 -140 65 -38 18 -106 49 -150 70 -44 21 -111 52 -150 70 -38 18
-101 47 -140 65 -38 18 -101 47 -140 65 -38 18 -106 49 -150 70 -44 21 -111
52 -150 70 -195 90 -236 111 -242 125 -3 9 1 44 10 78 9 34 23 96 32 137 9 41
23 100 30 130 8 30 21 87 30 125 9 39 23 99 31 135 8 36 22 94 30 130 32 141
43 188 59 260 17 74 31 137 55 235 7 28 16 67 20 88 4 22 14 45 21 52 11 11
188 15 950 21 l936 7 64 61 c36 34 106 100 157 147 l92 85 0 50 c0 27 6 153
14 279 41 625 47 715 46 785 0 41 7 149 15 240 8 91 15 197 15 235 0 39 6 174
15 300 8 127 22 345 30 485 8 140 19 332 25 425 6 94 15 262 20 375 5 113 14
250 20 305 5 55 10 138 10 185 0 47 6 180 15 295 8 116 20 308 26 428 l12 219
-148 148 -148 148 -8 262 c-5 151 -5 269 0 279 5 9 27 25 48 36 21 11 81 45
133 75 52 31 102 59 110 63 8 4 24 13 35 20 11 7 52 30 90 52 39 22 79 45 90
52 11 7 27 16 35 20 8 4 47 26 85 48 39 23 77 44 85 48 8 4 22 11 30 17 20 13
161 94 180 104 8 4 26 13 40 21 14 8 32 15 40 15 8 0 26 -7 40 -15z"/>
<path d="M4418 9350 c-26 -16 -73 -44 -105 -61 -32 -18 -91 -52 -131 -76 -41
-24 -75 -43 -77 -43 -2 0 -36 -19 -77 -43 -40 -24 -80 -46 -88 -50 -8 -4 -28
-16 -45 -26 -16 -11 -52 -32 -80 -47 -152 -83 -135 -51 -135 -254 l0 -175 150
-150 150 -150 0 -100 c0 -55 -6 -206 -15 -335 -16 -253 -35 -581 -60 -1020 -8
-151 -22 -374 -30 -495 -9 -121 -15 -247 -15 -280 0 -33 -6 -161 -15 -285 -15
-229 -33 -524 -60 -1025 -9 -154 -22 -374 -30 -490 -9 -115 -15 -241 -15 -280
0 -38 -7 -160 -15 -270 l-16 -200 -57 -55 c-31 -30 -108 -102 -171 -160 -62
-58 -125 -115 -138 -128 -59 -54 -2 -51 -957 -58 -844 -7 -890 -8 -908 -26
-10 -10 -18 -30 -18 -45 0 -14 -6 -49 -14 -77 -20 -71 -37 -144 -46 -191 -4
-22 -13 -62 -20 -90 -6 -27 -18 -75 -25 -105 -7 -30 -19 -77 -25 -105 -7 -27
-16 -68 -20 -90 -4 -22 -13 -62 -20 -90 -60 -245 -63 -264 -50 -280 12 -14 32
-25 185 -95 39 -18 102 -47 140 -65 39 -18 102 -47 140 -65 39 -17 104 -48
145 -67 155 -73 217 -102 283 -132 37 -17 97 -45 135 -62 37 -17 96 -45 132
-61 36 -17 103 -48 150 -70 47 -22 112 -53 145 -68 33 -15 94 -44 135 -63 41
-19 109 -51 150 -70 41 -19 107 -49 145 -67 39 -18 106 -49 150 -70 44 -21
110 -52 148 -69 102 -47 194 -90 272 -126 39 -18 102 -47 140 -65 39 -18 106
-49 150 -70 44 -21 109 -51 145 -68 80 -37 182 -84 277 -128 40 -19 77 -34 83
-34 6 0 41 14 78 31 105 49 201 94 277 129 39 18 106 49 150 70 44 21 112 52
150 70 39 18 104 48 145 67 70 33 101 47 293 137 39 19 104 49 142 66 39 18
99 46 135 62 36 17 94 44 130 60 36 17 103 48 150 70 47 22 112 53 145 68 33
15 98 46 145 68 47 22 110 51 140 65 51 23 97 45 275 127 72 33 145 67 295
138 86 40 180 84 280 129 30 14 91 42 135 63 44 20 101 47 127 59 25 12 52 28
58 36 13 16 10 35 -50 280 -7 28 -16 68 -20 90 -4 22 -13 63 -20 90 -6 28 -18
75 -25 105 -7 30 -19 78 -25 105 -7 28 -16 68 -20 90 -9 47 -26 120 -46 191
-8 28 -14 63 -14 77 0 15 -8 35 -18 45 -18 18 -64 19 -908 26 -956 7 -898 4
-957 59 -14 13 -79 72 -144 133 -65 60 -141 132 -170 159 l-52 50 -16 235 c-8
129 -22 354 -30 500 -8 146 -22 371 -30 500 -16 238 -29 467 -45 795 -9 194
-22 400 -45 755 -9 124 -15 250 -15 280 0 30 -6 159 -15 285 -8 127 -22 349
-30 495 -8 146 -22 371 -30 500 -9 129 -15 280 -15 335 l0 100 150 150 150
150 0 175 0 176 -102 60 c-57 32 -112 64 -123 71 -11 7 -27 15 -35 19 -19 10
-160 91 -180 104 -8 6 -22 13 -30 17 -8 4 -48 26 -88 50 -41 24 -75 43 -77 43
-2 0 -38 20 -79 45 -42 25 -87 45 -99 44 -12 0 -43 -13 -69 -29z m146 -114
c34 -19 85 -48 114 -65 29 -17 56 -31 61 -31 4 0 18 -11 30 -24 l23 -25 -46
-68 c-26 -37 -56 -79 -67 -93 l-21 -24 -31 18 c-96 57 -125 66 -212 66 -47 0
-105 -5 -129 -12 -36 -9 -48 -9 -61 2 -32 27 -14 53 55 77 59 21 79 23 215 21
134 -3 150 -1 153 14 2 10 -8 24 -24 35 -39 25 -289 25 -346 0 -23 -11 -39
-13 -43 -7 -3 6 2 13 12 17 10 4 20 9 23 13 4 6 99 62 140 83 8 4 26 14 40 22
35 21 44 19 114 -19z m337 -194 l22 -19 -23 -74 c-12 -41 -24 -80 -26 -87 -2
-7 -12 -15 -21 -18 -10 -3 -39 -16 -65 -29 -43 -21 -48 -22 -61 -7 -30 35 -28
42 32 121 34 44 61 83 61 87 0 13 32 44 45 44 7 0 23 -8 36 -18z m-771 -43
c22 -28 40 -57 40 -64 0 -14 -49 -65 -62 -65 -11 0 -81 49 -90 63 -19 31 -8
66 29 92 21 14 39 25 40 25 1 0 21 -23 43 -51z m964 -65 c122 -70 116 -60 116
-183 0 -118 -7 -138 -67 -202 -58 -61 -69 -54 -76 44 -7 89 -39 195 -65 215
-9 6 -24 10 -34 6 -25 -8 -32 18 -19 70 18 73 30 96 47 96 9 0 53 -21 98 -46z
m-1146 -17 c3 -32 9 -39 49 -59 58 -29 65 -49 38 -107 -12 -25 -28 -74 -35
-108 -12 -58 -11 -85 6 -205 4 -27 3 -48 -1 -48 -4 0 -25 18 -48 40 -48 48
-56 95 -37 206 18 105 18 109 -7 112 -29 4 -49 -29 -57 -96 -11 -89 -24 -102
-61 -59 -17 19 -20 40 -23 143 -3 102 -1 122 13 134 31 26 140 88 150 86 6 -2
11 -19 13 -39z m577 -13 c94 -45 175 -159 175 -245 0 -126 -129 -259 -250
-259 -34 0 -90 19 -112 37 -41 36 -78 -16 -38 -52 23 -21 113 -55 145 -55 12
0 52 9 88 21 132 41 217 153 227 299 5 71 7 75 38 97 18 12 57 29 85 37 63 18
66 16 96 -73 17 -51 21 -89 21 -182 l0 -117 -50 -51 c-27 -28 -53 -51 -57 -51
-5 0 -19 9 -32 19 l-24 18 17 49 c27 74 41 186 30 242 -8 41 -12 47 -34 47
-25 0 -25 -1 -31 -105 -3 -58 -12 -121 -19 -140 -63 -156 -206 -260 -358 -260
-153 0 -292 86 -354 220 -18 37 -22 65 -22 160 -1 113 0 116 34 179 85 158
280 233 425 165z m325 -646 c27 -19 36 -34 46 -78 10 -43 21 -303 15 -356 -1
-6 -29 -11 -73 -11 -73 0 -215 -25 -249 -43 -10 -6 -25 -10 -34 -10 -53 0
-391 -196 -469 -271 -16 -16 -33 -26 -38 -23 -4 3 -8 36 -8 74 0 85 13 103
137 186 199 134 403 203 599 204 44 0 77 5 89 14 18 13 15 20 -63 135 -45 67
-82 123 -82 126 0 14 65 75 80 75 9 0 32 -10 50 -22z m-687 -53 c37 -34 38
-37 23 -58 -9 -12 -35 -50 -58 -84 -23 -34 -46 -59 -51 -56 -10 6 -1 208 9
225 11 17 40 7 77 -27z m550 -110 c26 -35 47 -71 47 -79 0 -21 -38 -21 -62 1
-17 15 -23 15 -51 4 -57 -23 -140 -33 -232 -27 -49 3 -99 8 -110 11 -11 3 -29
-1 -40 -9 -19 -14 -19 -15 -1 -35 12 -13 32 -21 50 -21 17 0 38 -4 45 -9 12
-8 11 -13 -10 -30 -13 -11 -29 -20 -36 -21 -15 0 -125 -63 -184 -106 -71 -52
-73 -50 -65 67 3 56 9 105 12 110 3 5 14 3 25 -4 14 -8 22 -9 27 -1 4 6 28 42
54 80 25 38 58 80 72 93 24 23 29 24 59 13 54 -19 224 -14 277 8 25 10 52 19
60 19 8 0 36 -28 63 -64z m200 -357 c14 -11 18 -43 25 -208 5 -107 7 -201 4
-207 -2 -7 -14 -13 -26 -13 -53 0 -307 -63 -428 -106 l-38 -14 -135 137 c-74
75 -135 141 -135 147 1 30 314 202 430 236 123 36 273 50 303 28z m-648 -452
c126 -128 161 -176 244 -341 53 -103 77 -167 111 -295 12 -45 12 -45 -24 -76
-56 -49 -134 -74 -227 -74 -78 0 -79 0 -85 28 -8 34 -39 135 -58 189 -32 87
-103 204 -176 288 l-40 46 6 72 c19 225 19 229 59 265 l36 33 37 -27 c20 -15
73 -64 117 -108z m680 -52 c11 -12 15 -30 13 -63 l-3 -46 -50 -11 c-27 -7 -84
-20 -125 -29 -41 -9 -105 -26 -142 -37 -37 -11 -75 -17 -85 -13 -10 3 -29 22
-42 43 -38 59 -36 61 179 116 93 23 218 53 232 55 4 1 14 -6 23 -15z m28 -361
l8 -171 -45 -70 c-110 -172 -258 -274 -461 -317 -140 -30 -265 -12 -404 57
l-86 43 -3 68 c-2 50 1 69 11 73 7 2 40 -13 73 -35 104 -69 153 -84 284 -85
118 -1 136 3 238 53 19 9 63 42 98 75 107 97 152 193 168 361 l11 110 30 6
c72 16 69 22 78 -168z m-183 68 c0 -154 -100 -336 -121 -221 -4 19 -17 60 -29
90 -12 30 -24 65 -27 78 -3 12 -9 25 -14 28 -5 3 -9 16 -9 29 0 19 7 26 28 31
15 3 43 11 62 19 19 7 52 13 73 14 l37 1 0 -69z m-731 -55 l30 -43 -24 -23
c-13 -12 -31 -20 -42 -18 -15 3 -17 11 -14 58 5 85 9 87 50 26z m80 -138 c8
-13 29 -65 47 -116 27 -78 29 -94 17 -99 -38 -15 -203 109 -203 153 0 13 17
30 53 51 64 38 69 39 86 11z m861 -266 c0 -42 6 -180 15 -307 28 -430 37 -616
31 -622 -3 -3 -23 -1 -45 5 -90 27 -217 8 -318 -49 -29 -16 -57 -29 -63 -29
-14 0 -13 37 4 90 66 206 106 450 106 642 l0 124 65 48 c36 26 93 79 127 117
34 37 65 66 70 63 4 -3 8 -40 8 -82z m-817 -225 c56 -9 67 -22 67 -81 0 -57
-21 -198 -46 -316 -37 -172 -115 -296 -232 -371 -20 -13 -37 -18 -42 -13 -6 6
-3 98 5 224 8 118 20 303 26 410 6 107 15 202 20 211 7 15 18 12 86 -21 43
-21 95 -40 116 -43z m482 -57 c-1 -89 -19 -263 -37 -340 -5 -25 -14 -67 -19
-95 -5 -27 -18 -81 -29 -120 -12 -38 -25 -83 -30 -100 -14 -48 -69 -203 -78
-222 -5 -10 -16 -34 -24 -53 -28 -64 -170 -345 -182 -360 -7 -8 -36 -53 -65
-100 -111 -180 -322 -463 -335 -450 -7 7 -6 63 3 168 7 86 15 222 18 302 6
154 3 142 70 255 7 11 17 29 23 40 53 101 70 122 133 165 161 110 270 220 260
260 -9 34 -36 22 -98 -41 -74 -75 -146 -131 -247 -192 -107 -65 -116 -63 -110
18 4 39 9 47 40 67 76 45 150 108 188 160 45 59 104 177 104 207 0 11 4 31 9
44 17 44 43 210 50 312 l6 100 35 3 c59 4 203 34 235 48 17 8 41 13 55 11 25
-2 25 -4 25 -87z m340 -712 c25 -7 47 -19 50 -28 7 -25 9 -199 2 -207 -4 -3
-17 3 -30 14 -92 85 -233 85 -328 1 -38 -33 -89 -103 -89 -121 0 -9 -4 -18 -9
-21 -4 -3 -19 -36 -32 -73 -21 -60 -24 -85 -23 -223 0 -120 4 -165 17 -200 9
-25 17 -51 17 -58 0 -12 47 -112 81 -173 8 -13 53 -77 102 -142 48 -65 87
-126 87 -137 0 -25 -39 -100 -52 -100 -18 0 -137 144 -216 263 -35 52 -101
186 -127 257 -53 142 -56 406 -7 550 58 172 154 303 266 363 85 46 200 59 291
35z m-71 -238 c64 -29 96 -78 96 -148 0 -46 -4 -58 -29 -83 -22 -22 -39 -29
-68 -29 -36 0 -63 -14 -63 -32 0 -4 11 -15 25 -24 21 -14 32 -14 73 -4 27 6
61 22 75 36 15 14 32 22 37 19 6 -3 10 -51 10 -105 0 -121 -2 -123 -140 -124
-81 -1 -101 2 -140 23 -72 37 -132 108 -154 182 -18 62 -18 65 0 119 33 102
124 190 194 190 21 0 58 -9 84 -20z m-593 -387 c8 -243 49 -386 167 -583 51
-85 108 -161 199 -269 66 -77 66 -78 41 -143 -12 -33 -30 -40 -66 -27 -15 6
-76 16 -137 22 l-110 12 -18 55 c-10 30 -25 78 -33 105 -19 60 -30 86 -80 185
-59 118 -89 168 -156 256 -21 28 -38 58 -38 66 0 8 18 40 40 72 22 31 40 59
40 63 0 3 13 22 28 42 16 20 45 64 66 99 38 63 55 77 57 45z m299 -17 c0 -18
88 -99 131 -122 60 -31 146 -44 223 -33 37 5 72 11 76 14 19 12 34 -32 38
-111 l5 -84 -40 -52 c-21 -29 -69 -99 -107 -156 -37 -56 -72 -100 -77 -97 -11
8 -107 128 -134 170 -51 78 -96 169 -124 251 -20 61 -31 210 -17 233 9 14 26
5 26 -13z m-542 -413 c77 -99 180 -287 218 -399 94 -276 97 -634 8 -923 -16
-50 -12 -61 20 -61 32 0 44 18 56 79 5 29 12 56 15 61 10 16 45 292 45 355 0
78 -8 75 135 51 l70 -12 1 -225 c1 -249 10 -301 53 -307 36 -5 42 9 26 62 -11
36 -15 100 -15 236 0 227 0 227 101 189 l26 -10 -5 -138 c-5 -135 -4 -143 34
-318 3 -18 11 -23 34 -23 35 0 35 1 13 111 -10 52 -17 129 -16 202 0 99 3 120
18 137 11 12 25 18 34 15 9 -4 52 -10 96 -15 75 -9 82 -12 113 -47 51 -57 242
-313 242 -323 0 -10 -46 -43 -73 -53 -33 -12 -7 -27 47 -27 35 0 58 5 66 15 7
8 18 15 25 15 7 0 18 7 25 15 7 8 16 15 21 15 4 0 36 -25 70 -55 l61 -55 156
-2 c101 -2 157 -7 159 -14 2 -6 -27 -30 -64 -54 -37 -24 -94 -61 -126 -82 -32
-21 -60 -38 -62 -38 -3 0 -241 -139 -275 -160 -8 -5 -36 -20 -62 -32 -64 -31
-62 -48 5 -48 41 1 65 8 112 36 131 76 155 80 155 26 0 -40 21 -65 51 -60 26
3 26 5 10 87 -6 29 -8 57 -5 62 3 6 24 21 47 36 l41 26 18 -23 c10 -12 18 -33
18 -45 0 -13 5 -36 10 -51 16 -41 40 -240 40 -331 0 -102 -6 -107 -102 -71
-25 9 -28 15 -28 57 0 86 -13 181 -24 181 -6 0 -20 -19 -31 -41 -15 -32 -19
-58 -16 -114 l3 -72 -49 -17 c-26 -10 -53 -19 -59 -21 -6 -2 -21 -24 -34 -49
-12 -25 -26 -48 -31 -52 -5 -3 -9 -16 -9 -28 0 -17 9 -27 33 -36 72 -26 117
-50 117 -62 0 -19 -45 -160 -59 -186 -13 -24 -25 -21 -115 31 -64 37 -98 43
-116 22 -18 -22 -3 -36 90 -84 96 -49 102 -58 70 -119 -44 -85 -147 -222 -167
-222 -8 0 -48 18 -89 40 -82 44 -96 47 -113 26 -19 -22 -4 -40 64 -75 36 -19
70 -40 76 -47 23 -28 -206 -206 -334 -259 -24 -10 -43 -29 -62 -62 -27 -47
-27 -49 -15 -128 7 -44 15 -100 17 -125 4 -44 3 -45 -38 -64 -49 -22 -72 -14
-77 29 -4 28 -63 116 -79 116 -4 0 -10 -15 -13 -33 -5 -33 -5 -33 -95 -50
-204 -39 -495 -12 -715 66 -167 59 -295 127 -430 231 -70 54 -160 138 -160
149 0 13 73 76 88 76 7 0 25 -13 40 -28 115 -120 344 -259 517 -312 39 -12 92
-29 118 -37 66 -21 78 -8 49 51 -26 51 -40 60 -64 39 -15 -13 -24 -12 -80 7
-166 57 -342 159 -455 265 l-68 64 30 28 c33 31 167 134 227 173 29 19 38 32
38 53 0 40 -29 35 -108 -20 -82 -58 -313 -244 -414 -335 -42 -38 -81 -68 -89
-68 -8 0 -42 14 -76 30 -35 17 -93 44 -130 61 -94 42 -95 43 -106 60 -19 31
329 336 637 558 85 62 94 84 51 135 -18 23 -27 27 -37 19 -31 -26 -284 -103
-337 -103 -14 0 -24 13 -35 45 -8 25 -13 52 -10 60 6 15 63 35 99 35 21 0 87
20 173 54 47 18 53 23 50 46 -3 24 -6 25 -53 22 -28 -2 -64 2 -80 8 -42 17
-226 40 -314 40 -97 0 -241 -17 -315 -38 -76 -21 -152 -21 -202 0 -22 9 -48
19 -58 23 -66 21 130 89 375 129 154 26 280 21 517 -19 27 -5 32 -3 32 13 0
10 -8 26 -17 35 -17 14 -149 47 -193 47 -16 0 -20 6 -20 33 1 48 53 237 81
288 13 25 28 24 64 -7 46 -39 66 -55 125 -104 30 -25 57 -47 60 -50 3 -3 24
-20 46 -38 42 -32 105 -44 118 -23 4 5 -24 33 -61 62 -86 68 -176 143 -228
191 -22 21 -43 38 -47 38 -18 0 -28 40 -16 62 24 43 51 68 74 68 14 0 50 25
93 65 39 36 75 65 81 65 10 0 83 -60 88 -72 6 -14 92 -9 91 5 0 6 -27 34 -60
61 -32 27 -59 54 -59 61 0 6 17 27 39 46 131 116 232 216 237 236 6 22 37 40
129 75 80 31 235 69 247 62 5 -3 8 -50 8 -104 0 -96 -21 -230 -56 -350 -30
-103 -30 -100 5 -100 34 0 37 4 65 100 45 159 50 201 51 415 0 174 -3 223 -19
285 -25 97 -49 167 -86 243 -33 68 -31 65 -110 187 -30 47 -56 88 -58 92 -5
11 61 97 75 98 6 0 25 -17 41 -37z m1024 -153 c3 -92 2 -96 -28 -140 -32 -46
-107 -197 -142 -285 -20 -49 -21 -50 -67 -53 -98 -7 -96 23 21 263 50 101 46
94 133 228 35 54 67 95 72 90 4 -4 9 -51 11 -103z m-1134 -38 c89 -131 182
-333 168 -367 -3 -8 -16 -15 -29 -15 -27 0 -153 -31 -223 -55 -67 -23 -74 -17
-74 59 0 71 18 307 26 344 5 27 73 104 84 97 5 -3 26 -31 48 -63z m1153 -315
c-14 -14 -50 30 -51 62 0 14 10 36 23 49 l22 24 9 -62 c5 -41 4 -66 -3 -73z
m-37 -80 c43 -51 45 -55 52 -140 6 -75 5 -87 -9 -87 -18 0 -147 152 -147 173
0 22 40 107 50 107 5 0 29 -24 54 -53z m-924 -66 c5 -11 10 -38 10 -60 0 -39
0 -40 -54 -55 -30 -9 -62 -16 -73 -16 -10 0 -63 -16 -118 -35 -55 -19 -106
-35 -112 -35 -9 0 -13 19 -13 60 0 57 1 60 33 76 17 10 46 21 62 25 245 67
250 68 265 40z m460 3 c41 -8 100 -22 130 -29 30 -7 87 -20 125 -29 65 -15 74
-21 128 -78 81 -87 78 -94 -33 -72 -104 20 -205 43 -270 59 -87 22 -208 45
-235 45 -25 0 -25 0 -41 78 -3 13 -2 27 1 32 9 15 112 12 195 -6z m-1693 -795
c8 -8 5 -24 -13 -60 -38 -74 -75 -199 -105 -348 -10 -52 -20 -95 -22 -97 -2
-2 -42 -11 -88 -20 -172 -31 -250 -54 -377 -107 l-73 -30 -42 23 c-135 75
-307 215 -307 248 1 14 122 103 163 121 5 2 38 23 73 47 35 24 66 44 68 44 2
0 55 34 117 76 183 123 153 114 389 114 137 0 210 -4 217 -11z m219 -3 c4 -11
-18 -65 -68 -160 -24 -45 -77 -241 -78 -283 0 -43 -23 -63 -73 -63 -66 0 -68
5 -53 90 15 80 39 176 57 225 35 95 74 182 88 193 21 17 120 16 127 -2z m3229
2 c4 -4 -9 -40 -28 -80 -20 -40 -43 -93 -52 -118 -8 -25 -23 -65 -32 -90 -8
-25 -23 -82 -33 -128 -9 -45 -20 -85 -22 -88 -11 -11 -260 9 -273 23 -8 7 -17
35 -20 61 -7 57 -34 178 -46 210 -5 13 -9 29 -9 37 0 12 202 156 249 177 20 9
257 5 266 -4z m223 -2 c3 -4 -2 -22 -12 -39 -89 -154 -157 -330 -171 -449 l-6
-48 -49 0 c-56 0 -85 21 -76 54 3 12 9 39 12 61 8 54 30 122 72 225 60 146 89
198 114 202 36 5 108 2 116 -6z m-5033 -5 c7 -12 -12 -24 -25 -16 -11 7 -4 25
10 25 5 0 11 -4 15 -9z m775 -1 c0 -5 -10 -15 -22 -21 -13 -7 -66 -40 -118
-74 -52 -34 -126 -81 -165 -106 -130 -82 -490 -325 -559 -377 -38 -29 -73 -52
-79 -52 -6 0 -7 13 -2 33 4 17 11 50 15 72 9 48 27 122 46 191 8 28 14 59 14
70 0 10 9 46 19 79 18 59 20 61 117 127 l99 67 318 1 c197 0 317 -4 317 -10z
m4890 -31 c25 -23 88 -79 141 -126 77 -67 98 -91 102 -116 2 -18 10 -54 16
-82 7 -27 19 -75 26 -105 7 -30 19 -77 25 -105 7 -27 16 -68 20 -90 24 -121
24 -115 4 -115 -11 0 -44 22 -75 48 -31 26 -78 65 -104 87 -27 22 -53 45 -59
50 -6 6 -38 33 -71 60 -190 159 -558 512 -549 527 3 4 112 8 242 8 l237 0 45
-41z m187 -12 c8 -27 13 -53 11 -59 -2 -6 -32 13 -66 42 -34 28 -59 56 -56 61
3 6 26 9 51 7 46 -3 46 -3 60 -51z m-608 -161 c80 -79 173 -167 206 -196 33
-29 73 -67 88 -84 l29 -31 -44 -39 c-155 -139 -332 -245 -523 -312 -73 -25
-85 -16 -85 72 0 53 -28 79 -95 88 -27 3 -81 10 -120 16 -38 5 -127 9 -197 10
l-128 0 0 59 c0 33 4 61 10 63 5 2 65 0 132 -4 166 -8 308 -37 438 -88 84 -33
97 -35 109 -12 13 25 -2 43 -51 61 -18 7 -49 20 -68 29 -34 17 -35 19 -32 67
3 55 23 133 54 210 39 98 109 235 120 235 6 0 76 -65 157 -144z m-4946 -248
c102 -105 211 -182 387 -274 100 -52 311 -114 485 -141 54 -9 67 -24 80 -94 9
-47 -1 -50 -101 -33 -178 32 -290 60 -362 90 -18 8 -37 14 -43 14 -24 0 -211
97 -299 156 -142 94 -270 210 -270 246 0 14 64 66 83 67 5 1 23 -14 40 -31z
m-118 -152 c41 -41 108 -100 150 -132 41 -31 75 -60 75 -63 0 -4 -35 -35 -77
-69 -43 -34 -107 -88 -142 -122 -36 -33 -69 -60 -75 -60 -10 0 -134 107 -197
170 -62 61 -108 121 -103 134 3 7 53 49 112 93 142 106 165 122 175 123 5 0
42 -33 82 -74z m5541 -34 c50 -42 119 -99 152 -127 34 -27 62 -58 62 -67 0
-10 -21 -37 -47 -61 -27 -25 -77 -72 -113 -105 -36 -34 -72 -62 -81 -62 -8 0
-55 39 -105 88 -98 96 -124 119 -184 158 -22 15 -40 32 -40 39 0 7 42 44 93
83 50 39 105 84 121 101 17 17 35 31 40 31 6 0 52 -35 102 -78z m-4307 -145
c5 -13 12 -54 16 -92 4 -39 12 -81 17 -95 5 -14 13 -43 18 -65 4 -22 18 -65
30 -95 37 -92 37 -98 -1 -130 -19 -16 -43 -29 -55 -30 -20 0 -28 14 -73 135
-33 89 -85 353 -75 380 5 11 22 15 60 15 48 0 56 -3 63 -23z m179 7 c24 -7 3
-21 -40 -27 -48 -6 -75 7 -58 29 10 11 58 11 98 -2z m-373 -9 c0 -12 -50 -19
-71 -11 -9 3 -12 11 -9 16 8 14 80 9 80 -5z m2962 4 c55 -21 220 -40 336 -38
135 2 142 -2 153 -68 6 -40 5 -43 -20 -53 -75 -28 -380 0 -551 50 -38 12 -80
24 -93 27 -56 14 -34 44 53 72 72 23 86 24 122 10z m657 -5 c9 -8 16 -30 16
-48 0 -32 21 -122 54 -236 18 -63 80 -188 125 -255 17 -25 31 -51 31 -58 -1
-14 -68 -47 -96 -47 -36 0 -134 175 -182 325 -32 98 -74 313 -65 327 8 15 101
9 117 -8z m506 -65 c97 -66 290 -243 290 -267 0 -12 -79 -52 -101 -52 -8 0
-43 29 -79 63 -36 35 -106 93 -155 129 -50 37 -101 75 -115 86 l-24 19 49 26
c64 33 81 33 135 -4z m-4805 -16 c30 -16 55 -33 55 -38 0 -6 -35 -34 -77 -63
-43 -28 -115 -85 -160 -126 -76 -69 -85 -74 -111 -66 -33 9 -82 39 -82 49 0
25 289 271 317 271 2 0 28 -12 58 -27z m-677 -54 c68 -66 84 -89 63 -89 -15 0
-161 72 -167 82 -10 15 6 78 19 78 7 0 45 -32 85 -71z m6188 36 c9 -37 0 -50
-53 -75 -26 -12 -62 -29 -80 -38 -18 -9 -36 -13 -40 -8 -10 9 132 146 152 146
8 0 17 -11 21 -25z m-904 -67 c116 -70 316 -238 305 -255 -6 -9 -44 -29 -129
-67 -32 -14 -83 -38 -113 -52 -31 -14 -62 -23 -70 -20 -38 14 -136 192 -174
316 -12 36 -21 66 -21 68 0 2 19 12 43 22 60 28 98 25 159 -12z m-4390 -12
c92 -38 395 -106 476 -106 24 0 35 -6 41 -22 5 -13 23 -61 41 -108 17 -47 39
-100 48 -118 l17 -33 -112 -109 c-62 -61 -119 -110 -128 -110 -9 0 -44 13 -78
29 -34 16 -93 43 -132 61 -38 18 -108 50 -155 72 -47 22 -103 48 -125 58 -22
10 -93 43 -158 74 -64 31 -122 56 -127 56 -6 0 -10 8 -10 19 0 24 104 115 218
192 93 63 125 70 184 45z m3479 -26 c33 -18 24 -80 -34 -225 -77 -197 -174
-348 -322 -504 -62 -65 -233 -205 -275 -224 -8 -4 -28 -16 -45 -27 -46 -29
-153 -80 -170 -80 -18 0 -27 34 -23 85 3 36 7 41 66 72 349 180 604 505 708
901 4 15 68 16 95 2z m464 -47 c22 -103 101 -291 159 -376 33 -48 33 -65 -1
-78 -15 -6 -49 -21 -76 -35 -55 -27 -109 -31 -127 -9 -7 8 -16 15 -21 15 -5 0
-26 10 -47 23 -35 23 -93 54 -239 133 -38 20 -76 44 -85 53 -20 18 -19 21 26
146 14 39 26 78 26 87 0 9 4 28 10 42 l10 26 180 0 180 0 5 -27z m-2945 -13
c-19 -17 -39 -34 -45 -38 -5 -4 -28 -21 -50 -38 -22 -17 -45 -34 -52 -38 -19
-11 -53 30 -53 64 0 25 5 30 38 39 20 5 62 16 92 24 30 8 66 15 80 16 24 1 23
0 -10 -29z m2495 -334 c11 -7 58 -34 105 -58 47 -25 109 -59 138 -77 29 -17
56 -31 60 -31 4 0 20 -11 36 -23 l29 -23 -37 -22 c-21 -12 -39 -22 -41 -22 -4
0 -41 -17 -220 -100 -38 -18 -75 -33 -81 -33 -16 0 -176 83 -196 102 -16 15
-15 19 20 66 40 53 124 188 135 218 8 21 26 22 52 3z m-167 -386 c32 -16 51
-31 50 -40 -3 -14 -80 -55 -243 -130 -33 -15 -94 -44 -135 -63 -41 -19 -106
-49 -145 -67 -38 -18 -92 -43 -120 -55 -64 -30 -89 -34 -92 -15 -2 10 22 27
70 49 162 76 292 166 424 293 92 89 70 85 191 28z m-2354 -71 c-6 -10 -87 26
-92 41 -2 6 2 17 9 26 11 13 17 10 50 -22 21 -21 36 -41 33 -45z m1417 -390
c13 -24 -2 -69 -23 -69 -6 0 -53 -20 -105 -45 -51 -25 -102 -45 -113 -45 -11
0 -67 23 -126 51 -90 43 -105 54 -102 72 3 21 8 22 178 29 96 3 191 11 210 16
54 15 68 14 81 -9z"/>
<path d="M3654 2957 c-13 -7 -11 -15 9 -50 14 -23 34 -58 45 -77 11 -19 32
-56 46 -82 14 -26 43 -76 64 -110 l39 -63 184 0 184 0 -3 28 c-2 15 1 27 7 27
6 0 124 0 261 0 138 0 257 0 265 0 24 0 18 -16 -42 -118 -31 -54 -63 -108 -70
-122 -8 -14 -28 -47 -44 -75 -45 -76 -60 -112 -52 -132 6 -16 108 -194 133
-233 6 -8 14 -25 20 -37 17 -41 37 -26 90 72 19 33 52 92 75 130 22 39 44 77
48 85 4 8 16 29 27 45 11 17 23 37 27 45 8 18 119 208 133 230 6 8 13 22 17
30 4 8 32 58 63 110 31 52 59 102 63 110 4 8 21 38 37 65 43 70 64 114 59 119
-8 9 -1670 11 -1685 3z"/>
<path d="M3374 2476 c-3 -8 16 -52 43 -98 27 -46 52 -90 56 -98 4 -8 16 -28
27 -45 11 -16 23 -37 27 -45 4 -8 26 -46 48 -85 23 -38 45 -77 49 -85 4 -8 12
-24 19 -35 7 -11 37 -63 67 -115 30 -52 60 -104 67 -115 7 -11 16 -27 20 -35
4 -8 33 -59 65 -113 32 -54 58 -100 58 -102 0 -4 143 -250 160 -275 6 -8 13
-22 17 -30 4 -8 25 -46 48 -85 22 -38 44 -78 48 -87 13 -35 35 -20 71 47 15
28 36 64 47 80 10 17 22 37 26 45 4 8 29 52 55 97 26 44 48 89 48 100 0 10
-22 54 -48 98 -26 44 -51 87 -55 95 -4 8 -13 24 -20 35 -7 11 -20 35 -30 53
l-18 32 -28 -21 c-27 -20 -51 -19 -51 1 0 5 -19 42 -43 82 -24 40 -46 80 -50
88 -4 8 -17 31 -28 50 -97 162 -130 224 -125 236 4 12 46 14 239 14 210 0 235
2 249 18 15 17 118 190 118 198 0 2 12 23 26 45 14 23 23 47 20 55 -8 21
-1214 21 -1222 0z"/>
<path d="M5168 2478 c-13 -12 -64 -91 -81 -128 -4 -8 -16 -28 -27 -45 -25 -39
-73 -136 -69 -139 2 -1 16 -7 32 -14 l27 -12 -23 -37 c-13 -21 -27 -45 -31
-53 -4 -8 -12 -24 -19 -35 -7 -11 -37 -63 -67 -115 -30 -52 -59 -102 -65 -112
-5 -9 -21 -37 -35 -63 -13 -26 -28 -49 -33 -52 -9 -5 -47 25 -47 38 0 4 -19
40 -43 81 -24 40 -59 100 -77 133 -18 33 -48 84 -67 113 l-33 52 -178 -2
c-173 -3 -177 -3 -175 -24 2 -17 91 -181 133 -244 6 -8 13 -22 17 -30 7 -16
117 -206 133 -230 6 -8 13 -22 17 -30 4 -8 26 -46 48 -85 23 -38 44 -77 48
-85 4 -8 16 -28 27 -45 11 -16 23 -37 27 -45 8 -17 89 -158 103 -180 6 -8 14
-24 19 -35 11 -26 37 -48 48 -42 5 3 19 25 31 49 13 24 27 50 32 58 18 27 126
215 133 230 4 8 16 29 27 45 11 17 23 37 27 45 4 8 33 59 65 113 32 54 58 100
58 102 0 4 143 250 160 275 6 8 13 22 17 30 4 8 32 58 63 110 31 52 59 102 63
110 4 8 13 24 20 35 119 200 149 258 136 266 -23 14 -422 11 -441 -3z"/>
<path d="M4520 1004 c-63 -8 -134 -13 -157 -12 -46 2 -73 -14 -73 -43 0 -17 9
-19 103 -19 56 1 140 6 187 13 77 12 85 15 88 36 3 21 -13 43 -28 40 -3 -1
-57 -7 -120 -15z"/>
</g>
</svg>
