<?xml version="1.0" standalone="no"?>
<!DOCTYPE svg PUBLIC "-//W3C//DTD SVG 20010904//EN"
 "http://www.w3.org/TR/2001/REC-SVG-20010904/DTD/svg10.dtd">
<svg version="1.0" xmlns="http://www.w3.org/2000/svg"
 width="300.000000pt" height="300.000000pt" viewBox="0 0 300.000000 300.000000"
 preserveAspectRatio="xMidYMid meet">
<metadata>
Created by potrace 1.10, written by Peter Selinger 2001-2011
</metadata>
<g transform="translate(0.000000,300.000000) scale(0.050000,-0.050000)"
fill="#003b47" stroke="none">
<path d="M1380 3716 c-565 -982 -1040 -1806 -1056 -1831 l-29 -45 688 0 687 0
140 243 c77 134 143 251 147 260 3 9 -166 17 -377 17 -231 0 -381 7 -377 19
57 159 1211 2096 1232 2067 14 -19 99 -163 188 -321 89 -157 167 -289 175
-294 7 -4 78 105 157 242 l145 250 -323 563 c-178 310 -334 576 -347 590 -18
20 -243 -356 -1050 -1760z"/>
<path d="M3566 4796 c-11 -14 -166 -279 -343 -588 l-323 -562 145 -252 c80
-138 151 -245 158 -238 8 8 91 149 187 314 95 165 180 307 187 315 13 12 1223
-2060 1223 -2094 0 -6 -172 -11 -382 -11 -210 0 -378 -7 -375 -15 4 -9 70
-126 147 -260 l140 -245 686 0 c378 0 682 7 678 15 -5 8 -475 825 -1044 1815
-1139 1981 -1056 1842 -1084 1806z"/>
<path d="M1948 3348 c-252 -437 -461 -802 -465 -812 -4 -9 126 -15 288 -12
l296 6 169 295 c93 162 176 290 184 285 9 -5 90 -140 180 -300 l164 -290 290
0 c263 0 289 3 277 33 -20 53 -874 1534 -901 1563 -20 22 -113 -127 -482 -768z"/>
<path d="M3435 3219 c-163 -288 -167 -214 33 -560 l167 -289 -350 -10 -350
-10 -146 -255 -147 -255 939 0 c516 0 939 4 939 9 0 21 -925 1611 -937 1610
-7 0 -74 -108 -148 -240z"/>
<path d="M1950 1998 c-253 -440 -463 -809 -467 -819 -4 -12 356 -19 925 -19
570 0 932 7 932 19 0 10 -62 125 -138 255 l-138 236 -350 10 -349 10 167 290
c92 160 167 298 168 308 0 15 -278 513 -286 512 -2 -1 -211 -361 -464 -802z"/>
<path d="M644 1085 l-342 -595 2102 -5 c1156 -3 2106 -1 2111 3 4 5 -144 273
-329 595 l-338 587 -294 6 c-162 3 -294 1 -294 -4 0 -5 85 -156 189 -336 l189
-326 -1212 -5 c-667 -3 -1217 -1 -1222 4 -5 5 68 142 162 305 95 163 178 312
185 331 12 32 -9 35 -276 35 l-289 0 -342 -595z"/>
</g>
</svg>
