 <svg version="1.0" xmlns="http://www.w3.org/2000/svg" width="300.000000pt" height="252.000000pt" viewBox="0 0 300.000000 252.000000" preserveAspectRatio="xMidYMid meet">  <g transform="translate(0.000000,252.000000) scale(0.050000,-0.050000)" fill="#9b511c" stroke="none"> <path d="M524 4627 c-153 -511 12 -935 446 -1148 144 -71 425 -159 508 -159 18 0 296 -263 617 -585 l586 -586 -6 -509 -5 -510 -289 560 c-239 462 -292 580 -303 676 -17 141 -50 189 -293 423 l-185 179 0 -396 0 -396 362 -713 c199 -392 384 -733 411 -758 68 -62 1012 -71 1083 -10 39 34 104 155 572 1071 l212 416 0 389 c0 214 -7 389 -16 389 -31 0 -422 -413 -443 -467 -12 -31 -21 -90 -21 -132 0 -68 -513 -1132 -583 -1210 -9 -11 -17 212 -17 502 l0 521 581 572 c561 552 585 572 675 586 399 58 732 267 869 546 77 155 94 568 32 731 l-30 79 -26 -129 c-90 -461 -463 -759 -948 -759 l-183 0 -605 -605 -605 -605 -609 609 -610 609 -165 -5 c-486 -17 -875 293 -962 765 l-26 139 -24 -80z"></path> <path d="M1520 4129 c0 -27 11 -53 25 -57 14 -4 66 -18 115 -31 80 -22 155 -90 675 -607 l585 -583 585 581 c595 590 641 628 782 628 23 0 33 18 33 60 l0 60 -375 0 -375 0 -325 -325 -325 -325 -325 325 -325 325 -375 0 -375 0 0 -51z"></path> </g> </svg> 