 <svg  version="1.0" xmlns="http://www.w3.org/2000/svg"  width="300.000000pt" height="300.000000pt" viewBox="0 0 300.000000 300.000000"  preserveAspectRatio="xMidYMid meet">  <g transform="translate(0.000000,300.000000) scale(0.050000,-0.050000)" fill="#5c0c34" stroke="none"> <path d="M1870 3268 c-616 -1051 -1122 -1917 -1124 -1925 -5 -15 593 -496 640 -514 22 -9 235 126 643 404 l611 417 -352 5 c-193 3 -348 13 -345 22 20 49 1049 1843 1057 1843 9 0 1042 -1799 1057 -1841 3 -10 -142 -20 -348 -24 l-354 -5 614 -417 c404 -274 624 -412 645 -404 47 18 645 499 640 514 -10 33 -2245 3836 -2254 3836 -5 0 -514 -860 -1130 -1911z"/> </g> </svg> 