<?xml version="1.0" standalone="no"?>
<!DOCTYPE svg PUBLIC "-//W3C//DTD SVG 20010904//EN"
 "http://www.w3.org/TR/2001/REC-SVG-20010904/DTD/svg10.dtd">
<svg version="1.0" xmlns="http://www.w3.org/2000/svg"
 width="300.000000pt" height="300.000000pt" viewBox="0 0 300.000000 300.000000"
 preserveAspectRatio="xMidYMid meet">
<metadata>
Created by potrace 1.10, written by Peter Selinger 2001-2011
</metadata>
<g transform="translate(0.000000,300.000000) scale(0.100000,-0.100000)"
fill="#000000" stroke="none">
<path d="M1305 2803 c-334 -41 -610 -159 -858 -368 l-36 -30 -10 -134 c-6 -74
-11 -155 -11 -181 l0 -46 152 -12 c272 -21 448 -60 603 -136 107 -53 177 -116
212 -192 24 -52 25 -62 21 -192 -4 -132 -11 -168 -51 -262 -5 -11 18 -31 83
-74 l90 -59 90 59 c65 43 88 63 83 74 -40 94 -47 130 -51 262 -4 130 -3 140
21 192 35 77 105 139 212 191 158 77 335 117 604 137 l154 12 -7 115 c-3 64
-9 147 -13 184 l-6 68 -104 78 c-303 228 -602 323 -996 320 -84 -1 -165 -4
-182 -6z m505 -58 c115 -20 302 -81 397 -129 81 -40 266 -162 310 -204 27 -25
32 -37 38 -103 3 -40 7 -108 8 -149 l2 -75 -75 -7 c-180 -18 -271 -30 -357
-48 -264 -55 -444 -156 -518 -292 -28 -50 -30 -61 -33 -184 -3 -102 0 -145 14
-195 29 -108 27 -115 -38 -156 l-58 -36 -57 36 c-66 41 -68 49 -40 152 26 92
23 277 -5 352 -74 199 -391 334 -866 369 -64 5 -95 11 -99 20 -6 16 14 263 23
287 7 18 119 104 214 164 184 115 384 183 620 212 108 14 408 6 520 -14z"/>
<path d="M1073 2528 c-66 -70 -96 -170 -73 -244 17 -54 68 -128 101 -148 28
-16 29 -16 66 18 113 101 117 261 10 374 -17 17 -40 32 -52 32 -12 0 -35 -15
-52 -32z m113 -73 c29 -51 39 -111 25 -160 -12 -43 -70 -135 -86 -135 -16 0
-74 92 -86 135 -19 67 1 138 57 204 26 31 27 31 46 14 11 -10 31 -36 44 -58z"/>
<path d="M1823 2528 c-66 -70 -96 -170 -73 -244 17 -54 68 -128 101 -148 28
-16 29 -16 66 18 113 101 117 261 10 374 -17 17 -40 32 -52 32 -12 0 -35 -15
-52 -32z m113 -74 c30 -50 40 -121 25 -166 -14 -41 -73 -128 -86 -128 -13 0
-72 87 -86 128 -21 62 1 145 57 211 26 31 27 31 46 14 11 -10 31 -36 44 -59z"/>
<path d="M1436 2329 c-89 -105 -86 -254 9 -355 18 -19 41 -34 52 -34 34 0 70
37 104 105 27 55 31 72 27 123 -7 97 -74 202 -129 202 -20 0 -37 -12 -63 -41z
m103 -30 c66 -90 68 -183 8 -274 -21 -30 -42 -55 -47 -55 -5 0 -26 25 -47 55
-41 63 -54 137 -34 198 14 41 66 117 81 117 5 0 23 -18 39 -41z"/>
<path d="M385 1839 c3 -35 7 -112 10 -171 8 -180 42 -367 97 -538 11 -36 23
-68 27 -72 8 -9 169 109 243 178 62 59 94 68 128 34 12 -12 20 -33 20 -53 0
-28 -10 -43 -57 -88 -62 -59 -154 -130 -217 -170 -22 -13 -44 -27 -49 -30 -5
-4 2 -27 15 -53 l24 -47 70 49 c38 27 102 79 142 116 54 50 79 66 101 66 33 0
71 -39 71 -74 0 -27 -123 -147 -222 -216 -43 -29 -78 -57 -78 -61 0 -4 46 -54
103 -111 156 -158 392 -304 625 -388 l62 -23 63 23 c232 84 468 230 624 388
57 57 103 107 103 111 0 4 -35 32 -77 61 -100 69 -223 189 -223 216 0 35 38
74 71 74 22 0 47 -16 101 -66 40 -37 104 -89 142 -116 l70 -49 23 43 c12 24
22 46 23 50 0 4 -15 15 -32 24 -51 26 -177 122 -240 182 -48 46 -58 61 -58 89
0 20 8 41 20 53 35 35 64 25 144 -47 84 -77 223 -177 229 -166 24 44 82 270
102 403 15 94 36 429 29 439 -7 8 -315 -21 -408 -39 -203 -40 -358 -108 -418
-185 -20 -25 -24 -44 -27 -125 -4 -117 10 -181 54 -255 37 -61 43 -91 22 -117
-22 -28 -316 -218 -337 -218 -21 0 -315 190 -337 218 -21 26 -15 56 22 117 44
74 58 138 54 255 -3 82 -7 100 -27 125 -92 117 -357 198 -719 220 l-112 7 4
-63z m265 0 c274 -34 492 -115 536 -200 13 -26 15 -54 12 -135 -3 -98 -5 -107
-46 -184 -47 -92 -50 -112 -23 -157 21 -33 302 -228 346 -239 42 -10 69 3 226
107 149 100 189 139 189 185 0 11 -19 56 -42 100 -41 76 -42 83 -46 185 -5
128 5 154 81 204 115 76 412 145 625 145 l62 0 0 -88 c0 -194 -68 -589 -109
-635 -10 -10 -84 40 -167 114 -113 101 -157 110 -216 47 -40 -43 -38 -91 6
-150 l35 -45 -42 4 c-36 4 -48 1 -74 -21 -39 -33 -53 -71 -41 -115 11 -39 101
-132 198 -202 33 -24 60 -50 60 -58 0 -20 -137 -153 -225 -219 -135 -100 -423
-241 -493 -242 -36 0 -157 47 -281 109 -127 64 -258 159 -360 259 l-96 94 29
22 c105 76 213 177 234 218 22 42 22 48 9 80 -23 54 -63 81 -114 75 l-41 -4
34 47 c37 52 42 85 19 130 -16 30 -61 60 -90 60 -28 0 -74 -29 -140 -89 -36
-33 -86 -73 -112 -90 -41 -28 -49 -30 -59 -17 -20 28 -74 269 -89 401 -8 71
-15 172 -15 222 l0 93 68 0 c37 0 106 -5 152 -11z m160 -813 c0 -9 -152 -126
-163 -126 -13 1 9 20 98 85 62 46 65 48 65 41z m1529 -102 c8 -8 12 -16 9 -19
-6 -6 -126 83 -148 110 -14 18 107 -62 139 -91z"/>
<path d="M712 1715 c-70 -35 -132 -92 -132 -120 0 -28 72 -95 134 -125 99 -49
205 -42 299 21 45 30 97 82 97 98 0 23 -53 80 -100 109 -109 65 -192 70 -298
17z m237 -30 c29 -14 71 -40 94 -57 l40 -32 -38 -33 c-127 -109 -276 -111
-398 -3 -43 37 -41 43 30 91 93 64 182 75 272 34z"/>
<path d="M2068 1736 c-87 -31 -178 -104 -178 -144 0 -28 97 -110 158 -132 84
-32 160 -29 238 10 62 30 134 97 134 125 0 28 -62 85 -132 120 -78 39 -150 46
-220 21z m203 -54 c25 -12 64 -37 85 -56 l38 -33 -29 -27 c-17 -14 -57 -39
-89 -56 -107 -54 -218 -36 -321 53 l-38 33 40 32 c23 17 65 43 94 57 67 32
150 31 220 -3z"/>
<path d="M1265 868 c-72 -26 -165 -116 -165 -160 0 -16 37 -51 63 -61 8 -3 4
-11 -10 -22 -13 -9 -23 -24 -23 -35 0 -39 126 -115 242 -146 68 -18 188 -18
256 0 114 31 242 107 242 145 0 10 -9 26 -20 36 -19 17 -19 18 13 39 42 29 44
49 11 98 -52 74 -137 118 -230 118 -48 0 -59 -4 -93 -35 -21 -19 -44 -35 -51
-35 -7 0 -30 16 -51 35 -35 32 -44 35 -97 34 -31 0 -70 -5 -87 -11z m179 -73
c21 -25 46 -45 56 -45 10 0 35 20 56 45 35 44 38 45 93 45 33 0 73 -8 96 -19
38 -17 125 -100 125 -119 0 -10 -200 -22 -370 -22 -170 0 -370 12 -370 22 0
19 87 102 125 119 23 11 63 19 96 19 55 0 58 -1 93 -45z m56 -204 c135 0 269
4 298 8 36 5 51 4 49 -3 -6 -18 -177 -100 -235 -114 -123 -28 -231 -11 -366
58 -107 54 -118 70 -44 59 29 -4 163 -8 298 -8z"/>
</g>
</svg>
